<svg xmlns:xlink="http://www.w3.org/1999/xlink" xmlns:a="http://ns.adobe.com/AdobeSVGViewerExtensions/3.0/" xmlns="http://www.w3.org/2000/svg" version="1.1" x="0px" y="0px" viewBox="-15.139 -4.456 100 125" enable-background="new -15.139 -4.456 100 100" xml:space="preserve"><path d="M34.86,91.088c-3.445,0.002-6.537-1.535-8.654-3.956l0,0C16.249,82.838,8.674,71.579,5.968,57.503l0,0  C2.479,56.177,0.002,52.804,0,48.851l0,0c0.002-3.643,2.106-6.79,5.164-8.3l0,0c0.373-4.083,1.145-7.984,2.262-11.624l0,0h0.002  c0.176-0.575,0.784-0.899,1.36-0.721l0,0c0.575,0.176,0.897,0.786,0.721,1.36l0,0c-1.128,3.675-1.894,7.643-2.228,11.804l0,0  c-0.035,0.412-0.294,0.767-0.678,0.922l0,0c-2.594,1.054-4.426,3.591-4.424,6.56l0,0c-0.002,3.206,2.135,5.91,5.054,6.784l0,0  c0.393,0.116,0.688,0.446,0.761,0.85l0,0c2.508,13.971,10.02,24.908,19.292,28.737l0,0c0.159,0.065,0.308,0.175,0.417,0.308l0,0  c1.734,2.073,4.292,3.38,7.157,3.38l0,0c2.865,0,5.422-1.307,7.156-3.38l0,0c0.11-0.133,0.259-0.242,0.418-0.308l0,0  c9.27-3.829,16.784-14.767,19.292-28.737l0,0c0.072-0.403,0.367-0.733,0.761-0.852l0,0c2.919-0.87,5.056-3.576,5.054-6.782l0,0  c0.002-2.969-1.829-5.505-4.424-6.56l0,0c-0.38-0.155-0.645-0.513-0.676-0.922l0,0c-0.339-4.194-1.114-8.192-2.256-11.891l0,0  c-0.178-0.575,0.144-1.185,0.718-1.362l0,0c0.575-0.178,1.185,0.143,1.362,0.717l0,0c1.132,3.667,1.914,7.601,2.291,11.716l0,0  c3.058,1.51,5.163,4.658,5.163,8.301l0,0c-0.002,3.953-2.479,7.328-5.968,8.654l0,0C61.044,71.58,53.469,82.838,43.514,87.132l0,0  c-2.113,2.419-5.205,3.956-8.647,3.956l0,0C34.865,91.088,34.862,91.088,34.86,91.088L34.86,91.088z"/><path d="M51.531,4.525c-3.4-0.936-12.359-3.38-15.535-4.246c-1.359-0.371-0.923-0.368-2.206-0.018  c-3.116,0.85-12.174,3.321-15.599,4.264c-0.692,0.19-0.446,0.314-0.006,0.463c3.417,1.157,12.429,4.209,15.574,5.275  c0.694,0.235,1.489,0.242,2.15,0.018c3.095-1.048,12.191-4.13,15.627-5.293C51.976,4.839,52.223,4.716,51.531,4.525z"/><path d="M62.588,28.202c-4.565-10.057-8.329-18.486-9.58-21.292c-0.415-0.93-0.726-0.899-1.639-0.596  c-3.389,1.129-12.34,4.113-15.437,5.146c-0.675,0.226-1.477,0.223-2.163-0.005c-3.113-1.039-12.036-4.014-15.418-5.14  C17.439,6.01,17.128,5.98,16.713,6.91c-1.25,2.806-5.015,11.235-9.58,21.292c-0.613,1.352-0.068,1.383,0.937,1.523  c8.569,1.191,17.137,3.406,25.706,7.527c1.247,0.6,1.108,0.511,2.163,0.003c8.571-4.122,17.142-6.338,25.713-7.53  C62.657,29.585,63.202,29.553,62.588,28.202z M51.966,15.798c-3.522,2.578-12.836,9.41-16.021,11.747  c-0.684,0.502-1.492,0.498-2.186-0.011c-3.199-2.347-12.488-9.162-16.004-11.735c-0.15-0.11-0.07-0.264,0.106-0.205  c3.502,1.171,12.779,4.261,15.933,5.311c0.672,0.224,1.48,0.218,2.184-0.017c3.202-1.067,12.4-4.129,15.883-5.294  C52.037,15.534,52.117,15.688,51.966,15.798z"/><path d="M50.063,71.331c-0.273-0.911-1.521-3.979-3.104-5.192c-2.186-1.672-4.134-3.164-5.172-3.625  c-1.626-0.725-4.908-0.015-6.29,0.338c-0.396,0.101-0.908,0.091-1.351-0.021c-1.424-0.358-4.616-1.027-6.212-0.317  c-1.038,0.461-2.985,1.953-5.171,3.625c-1.584,1.213-2.831,4.281-3.104,5.192c-0.203,0.677,0.303,1.08,1.277,0.9  c2.063-0.381,5.513-2.272,6.98-2.495c2.132-0.321,4.506,0.032,5.853,0.305c1.278,0.257,0.908,0.258,2.199-0.004  c1.35-0.272,3.713-0.621,5.836-0.301c1.47,0.223,4.92,2.114,6.981,2.495C49.76,72.411,50.265,72.008,50.063,71.331z"/><text x="-15.139" y="110.544" fill="#000000" font-size="5px" font-weight="bold" font-family="'Helvetica Neue', Helvetica, Arial-Unicode, Arial, Sans-serif">Created by Karthik M</text><text x="-15.139" y="115.544" fill="#000000" font-size="5px" font-weight="bold" font-family="'Helvetica Neue', Helvetica, Arial-Unicode, Arial, Sans-serif">from the Noun Project</text></svg>